<svg version="1.0" xmlns="http://www.w3.org/2000/svg" viewBox="0 0 1000 375"><g fill="#9C3" stroke-width="0"><path d="M451.5 56.7c-17.6 10.2-33.3 19.3-35 20.3-1.6 1-6.4 3.7-10.5 6-30.6 17.4-43.9 25.5-46.2 28.1L357 114v73.4c0 72.1 0 73.4 2 75.9 1.7 2.1 28.6 18.7 30.4 18.7.3 0 3.3 1.8 6.8 3.9 3.5 2.2 24.7 14.6 47.3 27.5 29 16.8 41.8 23.6 44 23.6 1.8 0 6.3-1.9 11-4.6 4.4-2.5 10-5.7 12.5-7.1 12-6.8 19-10.9 24.7-14.4 3.4-2.2 6.5-3.9 6.8-3.9.2 0 6.9-3.7 14.7-8.3 7.9-4.6 23.9-13.9 35.6-20.6 11.6-6.8 22.1-13.4 23.2-14.8 2-2.5 2-4.2 2-76.1v-73.4l-3.8-3.7c-2.1-2-12.1-8.3-22.3-14-10.1-5.7-23.6-13.4-29.9-17.1-21.1-12.3-42.5-24.7-47-27.2-2.5-1.4-8.9-5.1-14.2-8.2-7.3-4.2-10.6-5.6-13.5-5.6-3.1.1-9.9 3.6-35.8 18.7zm83.5 86.2 6.5 3.7v63.7l-6 3.7c-3.3 2-8.5 5-11.5 6.7l-5.5 3.1-11.5-6.7-11.5-6.7v-27.9l10.5-6.2c5.8-3.4 11.3-6.2 12.3-6.2 1-.1 3.1.6 4.7 1.4l3 1.6v-16.4c0-15.1.3-17.8 1.9-17.6.3 0 3.5 1.7 7.1 3.8zm-128.3 32.7 11.3 6.6v17.3c0 9.6-.4 17.6-.8 17.9-.5.3-4.1-1.4-8-3.6l-7.1-4.1-.3-9.1-.3-9-3.4-2c-3.4-1.9-3.4-1.9-7 0l-3.6 1.9-.3 8.6c-.3 9.8-.2 9.6-9.5 14.8-4.3 2.5-5.8 2.9-6.2 1.9-.3-.8-.4-8.9-.3-18.2l.3-16.8 11-6.4c6-3.5 11.4-6.4 11.9-6.4s6 3 12.3 6.6zm61.8-.2 11 6.3.3 14.1.3 14.1-11.1 6.5c-6.1 3.7-11.6 6.6-12.3 6.6-.6 0-6.1-2.9-12.2-6.4l-11-6.4v-28.4l11-6.4c6.1-3.5 11.5-6.4 12-6.4.6 0 6 2.9 12 6.4zm122.2-.8c12.9 7.4 13.3 7.8 13.3 12.9 0 4.2-.1 4.3-7.1 8.4-4 2.2-7.6 4.1-8 4.1-.5 0-.9-1.8-.9-3.9 0-3.4-.5-4.2-3.7-6.2-3.6-2.3-3.6-2.3-7.2-.3-3.2 1.7-3.6 2.4-3.9 6.4l-.2 4.5 10.5 5.8c5.8 3.2 10.8 6.3 11.1 6.9.8 1.3-1.7 3.3-8.9 7.2l-5.3 2.8-11.7-6.7-11.7-6.7v-13.3c0-11 .3-13.5 1.6-14.6 1.9-1.6 20.6-12.7 21.6-12.8.3-.1 5.1 2.4 10.5 5.5zm-7.6 17.4c2.9 1.6 2.6 6.7-.6 8.2-1.9.9-2.9.8-5-.6-2.9-1.9-2.9-5.1 0-7.2 2.3-1.7 3-1.7 5.6-.4z"/><path d="M514.8 190.2c-3.4 2-3.8 2.6-3.8 6.2 0 3.7.4 4.3 3.8 6.3l3.8 2.1 3.7-2.1c3.3-1.9 3.7-2.5 3.7-6.3s-.4-4.4-3.6-6.3c-1.9-1.2-3.6-2.1-3.7-2.1-.1 0-1.9 1-3.9 2.2zm-63-.4c-2.2 1.3-2.8 2.4-2.8 5.3 0 3.2.5 4 3.6 5.8 3.5 2.1 3.7 2.1 6.8.3 2.6-1.5 3.2-2.5 3.4-5.9.3-3.8 0-4.3-2.7-5.7-3.8-2-4.9-2-8.3.2z"/></g><path d="M618.5 187c0 39.3.1 55.4.2 35.7.2-19.6.2-51.8 0-71.5-.1-19.6-.2-3.5-.2 35.8zm-262 1c0 38.8.1 54.6.2 35.2.2-19.3.2-51.1 0-70.5-.1-19.3-.2-3.5-.2 35.3zm106.7 7c0 1.4.2 1.9.5 1.2.2-.6.2-1.8 0-2.5-.3-.6-.5-.1-.5 1.3z" fill="#CC6"/><path d="M526.5 140c-.3.6.1.7.9.4 1.8-.7 2.1-1.4.7-1.4-.6 0-1.3.4-1.6 1zm52.1 29.9c-.4.5.3.7 1.4.4 2.3-.6 2.6-1.3.6-1.3-.8 0-1.7.4-2 .9zm-82.7 12.8c-1.3 1.6-1.2 1.7.4.4.9-.7 1.7-1.5 1.7-1.7 0-.8-.8-.3-2.1 1.3zm-102.1 5c.7.3 1.6.2 1.9-.1.4-.3-.2-.6-1.3-.5-1.1 0-1.4.3-.6.6zM589.5 199c-1.6.7-1.7.9-.3.9.9.1 2-.4 2.3-.9.7-1.1.7-1.1-2 0zM495 209.4c0 .2.8 1 1.8 1.7 1.5 1.3 1.6 1.2.3-.4s-2.1-2.1-2.1-1.3zm84.8 13.3c.7.3 1.6.2 1.9-.1.4-.3-.2-.6-1.3-.5-1.1 0-1.4.3-.6.6z" fill="#693"/><g fill="#333" stroke-width="0"><path d="M527 157c0 18-.2 18.8-4.6 15.5-1-.8-2.6-1.5-3.4-1.5-.8 0-6.3 2.8-12.2 6.2l-10.8 6.2v26.2l10.8 6.2c5.9 3.4 11.3 6.2 11.9 6.2.7 0 6-2.8 12-6.3l10.8-6.3.2-30c.2-16.4 0-30.4-.5-31-.7-1-12.8-8.4-13.8-8.4-.2 0-.4 7.6-.4 17zm-4 32.5c3.7 2.3 4 2.9 4 7s-.3 4.7-4 7l-4 2.5-3.9-1.9c-4.1-2.1-5.1-3.7-5.1-7.9 0-3.4 1-4.9 4.6-7.2 3.8-2.4 3.8-2.4 8.4.5zm-140.2-13.2-10.8 6.2v34.7l3.3-2c1.7-1 4.9-2.9 7-4.1l3.7-2.3v-8.1c0-8.9.2-9.4 4.2-12 3.4-2.1 4.9-2.1 8.7 0 3.5 2.1 3.7 2.6 4 12.3.2 8.3.2 8.3 9.1 13.3l5 2.8v-34.6l-11-6.3c-6-3.4-11.3-6.2-11.7-6.1-.5 0-5.6 2.8-11.5 6.2zm186.6.1-10.9 6.4-.3 13.3-.2 13.4 11.2 6.2 11.2 6.2 6.8-3.7c3.7-2 6.8-3.9 6.8-4.2 0-.3-4.9-3.4-11-6.9l-11-6.2v-4.4c0-4.8 1.2-6.5 5.9-8.5 2.6-1.1 3.5-1 6.3.7 2.6 1.5 3.4 2.7 3.6 5.3.2 1.9.6 3.8 1 4.2.4.4 3.6-1 7.2-3 6.2-3.6 6.5-4 6.8-7.9l.3-4.2-8.4-5c-15.5-9.1-12.8-8.9-25.3-1.7z"/><path d="M577.9 193c-2.1 1.2-1.3 5.7 1.2 6.5 4.3 1.4 7.6-4.2 3.9-6.5-1.9-1.2-3.1-1.2-5.1 0z"/></g><path d="M526.4 157c0 9.1.2 12.8.3 8.2.2-4.5.2-11.9 0-16.5-.1-4.5-.3-.8-.3 8.3zm-109 42.5c0 9.3.2 13.3.3 8.8.2-4.5.2-12.2 0-17-.1-4.8-.3-1.2-.3 8.2zm140-3.5c0 7.4.1 10.5.3 6.7.2-3.7.2-9.7 0-13.5-.2-3.7-.3-.6-.3 6.8zm45.9-9c0 2.5.2 3.5.4 2.2.2-1.2.2-3.2 0-4.5-.2-1.2-.4-.2-.4 2.3zm-107.9 9.5c0 7.1.1 9.9.3 6.2.2-3.7.2-9.6 0-13-.2-3.4-.3-.4-.3 6.8zm30.6.2c-.3 2.9-.1 4.8.3 4.4.5-.5.7-2.8.5-5.2l-.3-4.4-.5 5.2zm46.3-.7c0 2.5.2 3.5.4 2.2.2-1.2.2-3.2 0-4.5-.2-1.2-.4-.2-.4 2.3zm-186 5c0 4.7.2 6.6.4 4.2.2-2.3.2-6.1 0-8.5-.2-2.3-.4-.4-.4 4.3z" fill="#663"/><path d="M371.4 200c0 9.1.2 12.8.3 8.2.2-4.5.2-11.9 0-16.5-.1-4.5-.3-.8-.3 8.3zm138.9-3.5c0 2.2.2 3 .4 1.7.2-1.2.2-3 0-4-.3-.9-.5.1-.4 2.3zm-108 5c0 3.8.2 5.3.4 3.2.2-2 .2-5.2 0-7-.2-1.7-.4-.1-.4 3.8z" fill="#363"/><path d="M461 189.4c0 .2.8 1 1.8 1.7 1.5 1.3 1.6 1.2.3-.4s-2.1-2.1-2.1-1.3zm-12.8 5.6c0 1.9.2 2.7.5 1.7.2-.9.2-2.5 0-3.5-.3-.9-.5-.1-.5 1.8z" fill="#CF9"/><path d="m445 176.3-10.5 6.2v26.9l10.5 6.3c5.8 3.4 10.8 6.2 11.3 6.3.4 0 5.7-2.8 11.7-6.3l11-6.2v-27l-11-6.3c-6-3.4-11.3-6.2-11.7-6.1-.5 0-5.5 2.8-11.3 6.2zm15.1 11.9c3.7 2 3.9 2.4 3.9 6.9 0 4.3-.3 4.9-3.5 6.9s-3.9 2.1-6.6.9c-4.6-1.8-5.9-3.6-5.9-7.9 0-3.4.5-4.3 3.7-6.5 2.1-1.4 3.9-2.5 4.1-2.5.3 0 2.2 1 4.3 2.2z" fill="#FFF"/><path d="M433.4 196c0 6.9.1 9.7.3 6.2.2-3.4.2-9 0-12.5-.2-3.4-.3-.6-.3 6.3z" fill="#CFC"/><path d="M479.4 196c0 7.4.1 10.5.3 6.7.2-3.7.2-9.7 0-13.5-.2-3.7-.3-.6-.3 6.8z" fill="#FFC"/></svg>