<svg xmlns="http://www.w3.org/2000/svg" version="1.0" viewBox="75.23 73.08 475.66 477.8" height="70px" width="70px">
<path d="M311.8 73.7c.7.3 1.6.2 1.9-.1.4-.3-.2-.6-1.3-.5-1.1 0-1.4.3-.6.6z" fill="#B6B6B6" fill-opacity=".05"/>
<path d="m146.4 140.2-1.9 2.3 2.3-1.9c2.1-1.8 2.7-2.6 1.9-2.6-.2 0-1.2 1-2.3 2.2zM76.1 272.6c0 1.1.3 1.4.6.6.3-.7.2-1.6-.1-1.9-.3-.4-.6.2-.5 1.3zm-2.9 28.9c0 1.6.2 2.2.5 1.2.2-.9.2-2.3 0-3-.3-.6-.5.1-.5 1.8zm477.9 6.1c0 1.1.3 1.4.6.6.3-.7.2-1.6-.1-1.9-.3-.4-.6.2-.5 1.3z" 
fill="none"/>

<path d="M311.8 74.7c.7.3 1.6.2 1.9-.1.4-.3-.2-.6-1.3-.5-1.1 0-1.4.3-.6.6z" fill="#8A8A8A" fill-opacity=".37"/>
<path d="M310.8 550.7c.7.3 1.6.2 1.9-.1.4-.3-.2-.6-1.3-.5-1.1 0-1.4.3-.6.6z" fill="#858585" fill-opacity=".09"/>
<path d="M292 76c-2.3.7-2.3.8-.3.9 1.2.1 2.5-.4 2.8-.9.3-.6.5-1 .3-.9-.2.1-1.4.5-2.8.9zm7.3-.3c1.5.2 3.7.2 5 0 1.2-.2 0-.4-2.8-.4-2.7 0-3.8.2-2.2.4zm22 0c.9.2 2.3.2 3 0 .6-.3-.1-.5-1.8-.5-1.6 0-2.2.2-1.2.5zm10.5 1c.6.2 1.8.2 2.5 0 .6-.3.1-.5-1.3-.5-1.4 0-1.9.2-1.2.5zm-121 143c.6.2 1.8.2 2.5 0 .6-.3.1-.5-1.3-.5-1.4 0-1.9.2-1.2.5zm19 0c.6.2 1.8.2 2.5 0 .6-.3.1-.5-1.3-.5-1.4 0-1.9.2-1.2.5zM77.2 280c0 1.4.2 1.9.5 1.2.2-.6.2-1.8 0-2.5-.3-.6-.5-.1-.5 1.3zm-1.6 11.8c-.4 1.3-.5 2.6-.2 2.9 1 1.1 1.8-.4 1.4-2.9l-.4-2.3-.8 2.3zm472.6.2c0 1.4.2 1.9.5 1.2.2-.6.2-1.8 0-2.5-.3-.6-.5-.1-.5 1.3zM75.3 302c0 3 .2 4.3.4 2.7.2-1.5.2-3.9 0-5.5-.2-1.5-.4-.2-.4 2.8zm61.9-1c0 1.4.2 1.9.5 1.2.2-.6.2-1.8 0-2.5-.3-.6-.5-.1-.5 1.3zm-1.1 9.6c.1 3.2.5 7.2.9 8.9.4 1.7.5-.8.2-5.5-.6-9.9-1.3-12-1.1-3.4zm166-2c0 1.1.3 1.4.6.6.3-.7.2-1.6-.1-1.9-.3-.4-.6.2-.5 1.3zM75.3 321c0 3 .2 4.3.4 2.7.2-1.5.2-3.9 0-5.5-.2-1.5-.4-.2-.4 2.8zm62.8 8.6c0 1.1.3 1.4.6.6.3-.7.2-1.6-.1-1.9-.3-.4-.6.2-.5 1.3zm-62.5 2.1c.9 3.8 1.4 4.2 1.4 1 0-1.4-.5-2.9-1-3.2-.7-.4-.8.3-.4 2.2zm472.6.8c0 1.6.2 2.2.5 1.2.2-.9.2-2.3 0-3-.3-.6-.5.1-.5 1.8zm-471 12c0 1.6.2 2.2.5 1.2.2-.9.2-2.3 0-3-.3-.6-.5.1-.5 1.8zm217.1 2.2c.9.2 2.3.2 3 0 .6-.3-.1-.5-1.8-.5-1.6 0-2.2.2-1.2.5zm158 60c.9.2 2.3.2 3 0 .6-.3-.1-.5-1.8-.5-1.6 0-2.2.2-1.2.5zm11.5 0c1.2.2 3 .2 4 0 .9-.3-.1-.5-2.3-.4-2.2 0-3 .2-1.7.4zm13 0c1.2.2 3 .2 4 0 .9-.3-.1-.5-2.3-.4-2.2 0-3 .2-1.7.4z" 
fill="#666"/>

<g fill="#999" stroke-width="0"><path d="M294.3 76c-.2.3-2.6.6-5.1.6-9.4.2-26.4 3-36.4 5.9-1 .3-2.6.7-3.5.9-8.1 2.1-13.9 3.8-14.7 4.5-.6.4-3.1 1.3-5.6 2-2.5.7-5.8 2-7.5 2.9-1.6.9-3.2 1.6-3.5 1.7-.3 0-2.3.8-4.5 1.8-23.9 10.8-46.6 26.8-67.6 47.7-14.4 14.4-22.6 24.4-33.3 40.6-5.7 8.9-18 31.1-18.6 33.9-.1.5-1.3 3.5-2.7 6.5-1.3 3-2.5 6.1-2.6 7-.2.8-.8 2.4-1.4 3.5-.9 1.8-1.5 3.8-2.9 9.7-.2 1-.7 2.8-1 4-.3 1.3-.7 3-.9 3.8-.2.8-.4 1.5-.5 1.5-.1 0-.3.7-.5 1.5-1 4.8-1.6 7.8-2.1 10.5-.3 1.6-.7 4.3-1.1 6-.3 1.6-.5 4.3-.4 5.9 0 1.6-.4 3.5-1 4.3-.7.8-.9 3.3-.4 6.8.3 3 .3 5.5-.2 5.5-.7 0-.9 33.7-.2 35 .1.3.4 2.7.5 5.5.7 10.9 2.7 24.8 4.6 32 1.6 5.7 1.6 5.8 2.2 8 2 8.2 3.8 14 4.5 14.9.5.6 1.1 2.4 1.5 4.1 2.1 8.5 14.7 33 24.7 48 15.6 23.3 35.7 44.8 56.4 60.1 5.5 4.1 10.5 7.9 11.2 8.4 2.3 1.9 16.9 10.3 24.5 14.1 20.8 10.5 47.2 19 66.3 21.4 2.8.3 6.6.8 8.5 1.2 5.9 1 52 1.1 61 .2 41.2-4.4 85.8-23.1 118.4-49.7 9.9-8.1 29.9-28.2 38-38.2 8.9-11 20.2-28.2 25.6-39 2.3-4.7 4.9-9.7 5.7-11.3.8-1.5 1.1-2.7.7-2.7-.4 0 0-.8.9-1.8.9-.9 1.8-3 2.1-4.5.3-1.6 1-3.5 1.7-4.3.6-.8.8-1.4.4-1.4s-.2-.7.5-1.5.9-1.5.5-1.5-.3-.6.2-1.3c1-1.2 3-6.6 3.8-10.6.3-1.1.8-3.1 1.1-4.3.3-1.3.7-3 .9-3.8.2-.8.4-1.5.5-1.5.5 0 3.6-17.2 4.6-25.5 2.3-20 2.3-51.7 0-66.1-.3-1.9-.8-5-1.1-6.9-.2-1.9-.6-4.4-.9-5.5-.2-1.1-.7-4-1.1-6.5-.4-2.5-1-5-1.3-5.5-.4-.6-.7-1.5-.9-2-.1-.6-.5-2.1-.8-3.5-.4-1.4-.7-3.1-.7-3.8-.1-.6-.5-1.2-1-1.2s-.6-.5-.3-1c.7-1.1-.7-6-3.3-12-.9-1.9-1.6-3.7-1.7-4-.1-.3-.9-2.2-1.8-4.3-.9-2-1.7-3.9-1.7-4.2-.3-1.6-12.2-24.7-14.4-27.8-1.4-2.1-2.6-4.2-2.6-4.7 0-.6-.5-1-1-1-.6 0-1.5-1.1-1.9-2.3-3-7.9-29.2-37.8-43.6-49.8-3.8-3.2-7.9-6.7-9-7.6-3.6-3.2-13.5-10.3-14.3-10.3-.5 0-1.7-.9-2.7-2-1-1.1-2.2-2-2.6-2-.4 0-2.7-1.3-5.1-2.9-4.1-2.7-6.3-3.9-22.3-11.9-6.7-3.3-26-10.6-30.7-11.6-1.3-.3-4.8-1.2-7.8-2.1-8.7-2.4-27-5.5-36.5-6.1-10.2-.7-41.6-1-42.2-.4zM237 220.3c1.4.1 3.1.6 3.8 1 .7.5 1.9.6 2.7.3.8-.3 1.5-.2 1.5.2 0 .6 3.4 2 8 3.3.8.2 1.9.7 2.5 1.2.5.4 3.7 2.4 7 4.5 6.8 4.3 14.7 11.7 19.2 17.9 1.7 2.3 3.4 3.9 3.8 3.5.5-.4.5-.2.2.5-.4.6.1 1.9 1 2.9 1 1 1.7 1.9 1.5 2.1-.1.2.9 2.6 2.3 5.3 1.4 2.7 2.4 5.2 2.3 5.4-.2.2.6 1.3 1.6 2.5 1.1 1.2 1.5 2.1 1.1 2.1-.5 0-.4.5.2 1.1.6.6.9 1.8.6 2.5-.3.8-.1 1.4.5 1.4.5 0 .9.6.8 1.2-.1 1.7 3.3 22.4 4.3 26.3.5 1.6.6 5.5.2 8.5l-.6 5.5-66.4.3-66.4.2.7 8.3c1.2 15.9 5.6 26.6 14.5 35.6 10.2 10.2 23 15.1 40.1 15.1 23.8 0 39.5-10.6 45.5-30.6.4-1.5 27.7-2.5 28.7-1 .8 1.2.5 4.7-.6 6.4-.4.7-.5 1.9-.2 2.7.2.7.1 1.5-.4 1.7-.5.2-1.1 1.3-1.3 2.5-.1 1.1-.9 2.8-1.6 3.7-.7.9-1 1.6-.5 1.6s.4.4-.2.8c-.6.4-2.1 2.7-3.4 5.1-2.8 5.7-15 17.6-22.3 22-14.7 8.7-27.6 11.5-49.1 10.8-17.7-.6-23.3-1.9-36.6-8.4-8-3.9-10.9-6-18.5-13.7-6.3-6.3-10.2-11.2-12.5-15.8-1.9-3.6-3.8-6.4-4.2-6.2-.4.3-.5-.2-.2-1 .3-.9.1-1.6-.5-1.6s-.8-.7-.5-1.5c.4-.8.1-1.5-.5-1.5s-.8-.7-.5-1.5c.4-.8.1-1.5-.5-1.5s-.8-.7-.4-1.7c.4-.9.2-1.4-.3-1.1-.5.4-1-.5-1-1.8-.1-1.3-.5-3.2-.9-4.2-.5-.9-.7-2.5-.6-3.5.1-.9-.2-1.7-.7-1.7-.5 0-1-1.2-1-2.8-.2-4.6-1-10.5-2.1-15.2-.6-2.5-1-7-.9-10l.1-5.5.7 6.5c.7 6.2.7 6 .7-3 0-5.5.7-12.8 1.7-17.3.9-4.2 1.4-8.3 1-9-.4-.6-.3-.9.1-.4.5.4 1.8-2.1 3-5.6 5.8-16.5 15.7-30.2 29.3-40.3 4.2-3.2 8-6.2 8.3-6.7.3-.5.9-.8 1.3-.8 1.7.3 5.6-1.2 5.6-2.2 0-.6.3-.8.6-.4.8.7 6.4-1.3 6.4-2.4 0-.4.7-.6 1.5-.3.8.4 1.5.2 1.5-.2 0-.5 1-1 2.3-1.1 4.6-.3 8.7-.9 9.1-1.4.4-.4 22-.1 27.6.4zm119.4 5.9c2.4 3.5 5.5 7.5 6.8 8.9 1.2 1.5 2.4 3.2 2.5 3.7.4 1.8 6.6 10.2 7.6 10.2.4 0 .6.4.3.8-.3.5.8 2.3 2.4 4 1.6 1.8 2.7 3.2 2.4 3.2-.5 0 15.8 24.3 17.6 26.3.4.5 3.4-2.8 6.6-7.3 3.2-4.5 7.6-10.4 9.6-13.2 2.1-2.8 3.6-5.3 3.4-5.5-.2-.2.8-1.7 2.3-3.3 3.6-3.9 7.2-8.6 10.1-13.4 1.4-2.3 4.3-6.6 6.5-9.6s3.9-5.6 3.8-5.7c-.1-.1.8-1.4 2.1-2.8 2.3-2.5 2.4-2.5 20-2.5 19.8 0 19.9 0 14.4 6.8-2.8 3.4-12.3 15.9-21.8 28.7-7.2 9.7-8.9 12.3-8.2 13 .4.5.3.6-.3.3-1.2-.7-13.2 15-12.7 16.6.2.6 0 .8-.4.4-.6-.7-3.4 2.7-9.1 11.2-.9 1.4-2.8 3.7-4.1 5.2-2.4 2.6-2.4 2.8-.8 5 .9 1.3 2.8 4 4.1 6.1 1.5 2.2 3 3.5 3.7 3.1.7-.4.8-.3.4.4s-.2 1.2.4 1.2c.6 0 .9.4.6.9-.3.5.5 2 1.8 3.4s2.2 2.7 2 2.9c-.2.2 1 1.9 2.6 3.6 1.6 1.8 2.6 3.2 2.2 3.2-.4 0 0 .6.8 1.3.9.7 2.8 3.3 4.3 6 1.6 2.6 3.2 4.5 3.8 4.1.5-.3.8-.2.7.3-.4 1.2 5.2 10.2 7.2 11.6.9.6 1.7 1.5 1.6 1.8-.2 1 10.6 16 12 16.6.8.3 1.1.9.8 1.4-.3.5.8 2.2 2.4 3.9 1.6 1.6 2.8 3.1 2.6 3.3-.2.2.7 1.6 2.1 3.1 1.3 1.4 2.4 2.9 2.4 3.1 0 .9 3.5 5.7 6.3 8.6 1.4 1.6 2.4 2.9 2.1 2.9-.3 0 .2 1.1 1.1 2.5l1.6 2.5h-38.7l-2.6-3c-1.5-1.7-2.5-3-2.2-3 .2 0-.9-1.9-2.6-4.2-1.6-2.4-4.1-6.1-5.6-8.3-1.4-2.2-3-4.2-3.5-4.3-.4-.2-.6-.7-.4-1.1.3-.4-.8-2.2-2.4-3.9-1.6-1.8-2.6-3.2-2.2-3.2.4 0-.2-.7-1.2-1.5-1.1-.8-1.7-1.5-1.3-1.5.4 0-.5-1.8-1.9-4-1.5-2.2-3.1-4-3.5-4-.5 0-.8-.3-.7-.8.4-1-15.2-24.2-16.3-24.2-.5 0-.8-.4-.6-.9.3-1.4-3.6-7.1-4.7-6.8-1.2.4-9.8 12.7-8.9 12.7.4 0 0 .6-.9 1.2-.9.7-2.5 2.7-3.5 4.4-1 1.8-4.8 7.6-8.6 13-8.1 11.9-7.8 11.4-19.6 29.1l-9.5 14.3h-18.4c-15.5 0-18.3-.2-17.9-1.4.3-.8 3.6-5.6 7.2-10.7 3.7-5 6.8-9.8 6.9-10.5.1-.7.6-1.7 1.1-2.1.4-.4.5-.1.1.7-1 2 .9-.3 5.9-7.5 2.2-3.1 5.7-7.9 7.7-10.7 2.1-2.8 3.6-5.3 3.4-5.5-.2-.2.8-1.7 2.3-3.3 4.1-4.5 16.6-22 15.7-22-.3 0 .8-1.3 2.2-2.9 1.5-1.6 5.6-7 9.1-12l6.3-9.1-3.8-5.5c-2-3-3.9-5.5-4.1-5.5-.2 0-.1.5.3 1.2s.3.8-.5.4c-.6-.4-.9-1.1-.7-1.4.4-.7-4.2-7.5-15.2-22.4-1.5-2-9.3-12.7-17.5-23.7-8.1-11-15.3-20.6-16-21.3-1.3-1.3-5.7-8.6-5.7-9.4 0-.2 8.6-.4 19-.4h19l4.4 6.2zm98.9 180.5c-.7.2-2.1.2-3 0-1-.3-.4-.5 1.2-.5 1.7 0 2.4.2 1.8.5zm12.5 0c-1 .2-2.8.2-4 0-1.3-.2-.5-.4 1.7-.4 2.2-.1 3.2.1 2.3.4zm13 0c-1 .2-2.8.2-4 0-1.3-.2-.5-.4 1.7-.4 2.2-.1 3.2.1 2.3.4z"/>
<path d="M212.3 246.7c.3.5-1.4.8-3.7.8-2.8 0-6.7 1.2-11.8 3.8-8.6 4.2-17.2 12.6-21.4 20.9-2.3 4.6-6.4 18.3-6.4 21.5 0 1.1 9 1.3 50.5 1.3 43.5 0 50.5-.2 50.5-1.5 0-3.1-2.2-11.5-3.1-11.5-.4 0-.6-.7-.3-1.5.4-.8.1-1.5-.6-1.5-.6 0-.8-.4-.5-1 .7-1.1-1.2-5-3.4-6.8-1.3-1.1-1.3-1.2-.1-.7 1.3.6 1.3.5 0-.7-.8-.7-1.6-2-1.8-2.8-.5-2.5-11.4-12.3-17-15.3-2.8-1.5-8.2-3.4-11.9-4.2-7.2-1.5-19.7-2-19-.8z"/></g>
<path d="M550.1 323.6c0 1.1.3 1.4.6.6.3-.7.2-1.6-.1-1.9-.3-.4-.6.2-.5 1.3z" fill="#9C9C9C" fill-opacity=".12"/>
<path d="M210.3 220.7c1.5.2 3.7.2 5 0 1.2-.2 0-.4-2.8-.4-2.7 0-3.8.2-2.2.4zm15.8-.3c.2.2 3.8.6 7.9.9 4.4.3 6.3.2 4.5-.3-3-.8-13.2-1.3-12.4-.6zm87.9.3c0 .5 5.7.7 12.7.5 23.6-.4 25.9-.8 6.6-1-10.6-.1-19.3.1-19.3.5zm127.7 0c-.3.5 5 .7 11.6.5 22.8-.5 25.2-.8 7-1-10-.1-18.4.1-18.6.5zM200 222c-2 .6-2.1.8-.5.8 1.1 0 3.4-.4 5-.8 2.7-.7 2.7-.8.5-.8-1.4 0-3.6.4-5 .8zm42.8.7c.7.3 1.6.2 1.9-.1.4-.3-.2-.6-1.3-.5-1.1 0-1.4.3-.6.6zm4 1c.7.3 1.6.2 1.9-.1.4-.3-.2-.6-1.3-.5-1.1 0-1.4.3-.6.6zm3.9 1.4c.7.7 1.5 1 1.8.7.3-.3-.2-.9-1.2-1.2-1.4-.6-1.5-.5-.6.5zm223.7 1.1-1.9 2.3 2.3-1.9c2.1-1.8 2.7-2.6 1.9-2.6-.2 0-1.2 1-2.3 2.2zM189 226c-.8.5-1 1-.5 1 .6 0 1.7-.5 2.5-1s1.1-1 .5-1c-.5 0-1.7.5-2.5 1zm166-.6c0 .2.8 1 1.8 1.7 1.5 1.3 1.6 1.2.3-.4s-2.1-2.1-2.1-1.3zm-35.6 3.9c1.6 2 3 3.7 3.3 3.7.7 0-3.6-5.8-4.9-6.6-.7-.4.1.9 1.6 2.9zm117.5-1.6c-1.3 1.6-1.2 1.7.4.4.9-.7 1.7-1.5 1.7-1.7 0-.8-.8-.3-2.1 1.3zm-253.9.8c-1.4.8-2 1.4-1.5 1.4.6 0 2.1-.6 3.5-1.4 1.4-.8 2.1-1.4 1.5-1.4-.5 0-2.1.6-3.5 1.4zm-5.1 3.2c-1.3 1.6-1.2 1.7.4.4.9-.7 1.7-1.5 1.7-1.7 0-.8-.8-.3-2.1 1.3zm291.1 1.5c-1.5 2.1-1.7 2.8-.6 1.9 1.6-1.3 4.1-5.1 3.3-5.1-.2 0-1.4 1.5-2.7 3.2zM267.5 235c1 1.1 2 2 2.3 2 .3 0-.3-.9-1.3-2s-2-2-2.3-2c-.3 0 .3.9 1.3 2zm164.3-.3c-1.8 2.1-3.1 4.3-2.5 4.3.2 0 1.3-1.4 2.5-3 2.5-3.3 2.4-4.1 0-1.3zm-108.8-.3c0 .2.8 1 1.8 1.7 1.5 1.3 1.6 1.2.3-.4s-2.1-2.1-2.1-1.3zm-152.1 2.3c-1.3 1.6-1.2 1.7.4.4.9-.7 1.7-1.5 1.7-1.7 0-.8-.8-.3-2.1 1.3zm103.1 3.8c1.3 1.4 2.6 2.5 2.8 2.5.3 0-.5-1.1-1.8-2.5s-2.6-2.5-2.8-2.5c-.3 0 .5 1.1 1.8 2.5zm52-2.1c0 .2.8 1 1.8 1.7 1.5 1.3 1.6 1.2.3-.4s-2.1-2.1-2.1-1.3zm-162.5 4.8-4 4.3 4.3-4c3.9-3.6 4.7-4.5 3.9-4.5-.2 0-2.1 1.9-4.2 4.2zm298.4-.5c-1.3 1.6-1.2 1.7.4.4.9-.7 1.7-1.5 1.7-1.7 0-.8-.8-.3-2.1 1.3zm-132.9-.3c0 .2.8 1 1.8 1.7 1.5 1.3 1.6 1.2.3-.4s-2.1-2.1-2.1-1.3zm-112.2 3.3c1.8.2 4.5.2 6 0s0-.4-3.3-.4-4.5.2-2.7.4zm-8 1c.6.2 1.8.2 2.5 0 .6-.3.1-.5-1.3-.5-1.4 0-1.9.2-1.2.5zm18.5 0c.9.2 2.3.2 3 0 .6-.3-.1-.5-1.8-.5-1.6 0-2.2.2-1.2.5zm51.7-.3c0 .2.8 1 1.8 1.7 1.5 1.3 1.6 1.2.3-.4s-2.1-2.1-2.1-1.3zm-46.2 1.3c.7.3 1.6.2 1.9-.1.4-.3-.2-.6-1.3-.5-1.1 0-1.4.3-.6.6zM421 250c-.6 1.1-.8 2-.6 2 .3 0 1-.9 1.6-2 .6-1.1.8-2 .6-2-.3 0-1 .9-1.6 2zm-264.1.7c-1.3 1.6-1.2 1.7.4.4.9-.7 1.7-1.5 1.7-1.7 0-.8-.8-.3-2.1 1.3zm38.9-.1c-3.9 2.1-3.5 2.8.5.8 3.7-1.9 4.4-2.4 3.1-2.4-.5.1-2.1.8-3.6 1.6zm177.2.8c0 .2.8 1 1.8 1.7 1.5 1.3 1.6 1.2.3-.4s-2.1-2.1-2.1-1.3zm-36 2c0 .2.8 1 1.8 1.7 1.5 1.3 1.6 1.2.3-.4s-2.1-2.1-2.1-1.3zm-153 6.1c-2.4 2.5-4.2 4.5-3.9 4.5.3 0 2.5-2 4.9-4.5 2.4-2.5 4.2-4.5 3.9-4.5-.3 0-2.5 2-4.9 4.5zm70 0c1.9 1.9 3.6 3.5 3.9 3.5.3 0-1-1.6-2.9-3.5s-3.6-3.5-3.9-3.5c-.3 0 1 1.6 2.9 3.5zm123-2.8c0 .6.8 1.7 1.8 2.4 1.6 1.3 1.6 1.3.2-.6-.8-1.1-1.6-2.2-1.7-2.4-.2-.2-.3 0-.3.6zm73.4 1.5-1.9 2.3 2.3-1.9c1.2-1.1 2.2-2.1 2.2-2.3 0-.8-.8-.2-2.6 1.9zm-110.4-.8c0 .2.8 1 1.8 1.7 1.5 1.3 1.6 1.2.3-.4s-2.1-2.1-2.1-1.3zM150 261c-.6 1.1-.8 2-.6 2 .3 0 1-.9 1.6-2 .6-1.1.8-2 .6-2-.3 0-1 .9-1.6 2zm27.9 5.7c-1.3 1.6-1.2 1.7.4.4 1.6-1.3 2.1-2.1 1.3-2.1-.2 0-1 .8-1.7 1.7zm113.2-1.4c-.1.4.7 2.7 1.8 5 1 2.3 2.1 4.9 2.4 5.7.5 1.3.5 1.3.6 0 0-1.6-4.7-12.1-4.8-10.7zm-144.9 3.2c-1.7 3.7-1.4 4.5.4 1.2.9-1.6 1.4-3.1 1.1-3.3-.2-.2-.9.7-1.5 2.1zm201.8-.1c0 .2.8 1 1.8 1.7 1.5 1.3 1.6 1.2.3-.4s-2.1-2.1-2.1-1.3zm-83.9 4.6c1.4 3.1 1.9 3.6 1.9 2.4 0-.6-.7-1.9-1.6-3-1.4-1.8-1.4-1.8-.3.6zm88.9 2c.6 1.1 1.3 2 1.6 2 .2 0 0-.9-.6-2s-1.3-2-1.6-2c-.2 0 0 .9.6 2zm35-1.6c0 .2.8 1 1.8 1.7 1.5 1.3 1.6 1.2.3-.4s-2.1-2.1-2.1-1.3zm-245.9 6.2c0 1.1.3 1.4.6.6.3-.7.2-1.6-.1-1.9-.3-.4-.6.2-.5 1.3zm154.1-.6c0 .8.4 2.6.8 4 .6 2 .8 2.1.8.5 0-1.1-.3-2.9-.8-4-.5-1.2-.8-1.4-.8-.5zm103.7.7c-1.3 1.6-1.2 1.7.4.4.9-.7 1.7-1.5 1.7-1.7 0-.8-.8-.3-2.1 1.3zm-258.8 3.9c0 1.1.3 1.4.6.6.3-.7.2-1.6-.1-1.9-.3-.4-.6.2-.5 1.3zm29 1c0 1.1.3 1.4.6.6.3-.7.2-1.6-.1-1.9-.3-.4-.6.2-.5 1.3zm-30 3c0 1.1.3 1.4.6.6.3-.7.2-1.6-.1-1.9-.3-.4-.6.2-.5 1.3zm158 0c0 1.1.3 1.4.6.6.3-.7.2-1.6-.1-1.9-.3-.4-.6.2-.5 1.3zm-29 1c0 1.1.3 1.4.6.6.3-.7.2-1.6-.1-1.9-.3-.4-.6.2-.5 1.3zm-100 1c0 1.1.3 1.4.6.6.3-.7.2-1.6-.1-1.9-.3-.4-.6.2-.5 1.3zm-29.9 2.9c0 1.6.2 2.2.5 1.2.2-.9.2-2.3 0-3-.3-.6-.5.1-.5 1.8zm160 .5c0 1.4.2 1.9.5 1.2.2-.6.2-1.8 0-2.5-.3-.6-.5-.1-.5 1.3zm-29.2.3c0 1.5-4.3 1.7-50.7 2l-50.8.2 50.8.3c45 .2 50.8 0 51.4-1.3.3-.9.3-1.9-.1-2.2-.3-.4-.6.1-.6 1zm153.9.4c-1.3 1.6-1.2 1.7.4.4 1.6-1.3 2.1-2.1 1.3-2.1-.2 0-1 .8-1.7 1.7zm-56.9.7c0 .2.8 1 1.8 1.7 1.5 1.3 1.6 1.2.3-.4s-2.1-2.1-2.1-1.3zm-228.7 7.1c0 3.3.2 4.5.4 2.7.2-1.8.2-4.5 0-6s-.4 0-.4 3.3zm161.9-1.5c0 1.9.2 2.7.5 1.7.2-.9.2-2.5 0-3.5-.3-.9-.5-.1-.5 1.8zm118.8.2c-1.5 2.1-1.7 2.8-.6 1.9 1.6-1.3 4.1-5.1 3.3-5.1-.2 0-1.4 1.5-2.7 3.2zm-46 2.2c0 .2.8 1 1.8 1.7 1.5 1.3 1.6 1.2.3-.4s-2.1-2.1-2.1-1.3zm-71.8 9.3-.2 7.3-66.2.2-66.3.3-.1 4-.1 4 .4-3.8.4-3.7h66c54.6 0 66.1-.2 66.5-1.4.3-.7.3-4.2.1-7.7l-.3-6.4-.2 7.2zm117.8-1c1.3 1.8 2.5 3.3 2.7 3.3.8 0-1.7-3.8-3.3-5.1-1.1-.9-.9-.2.6 1.8zM138.3 320c0 3.6.2 5 .4 3.2.2-1.7.2-4.7 0-6.5-.2-1.7-.4-.3-.4 3.3zm232.6-3.3c-1.3 1.6-1.2 1.7.4.4 1.6-1.3 2.1-2.1 1.3-2.1-.2 0-1 .8-1.7 1.7zm52.1-.3c0 .2.8 1 1.8 1.7 1.5 1.3 1.6 1.2.3-.4s-2.1-2.1-2.1-1.3zm-56 5.6c-1.2 1.6-1.9 3-1.6 3 .2 0 1.4-1.4 2.6-3 1.2-1.7 1.9-3 1.6-3-.2 0-1.4 1.3-2.6 3zm63 4.4c0 .2.8 1 1.8 1.7 1.5 1.3 1.6 1.2.3-.4s-2.1-2.1-2.1-1.3zM139.2 330c0 1.9.2 2.7.5 1.7.2-.9.2-2.5 0-3.5-.3-.9-.5-.1-.5 1.8zm255.7.7c-1.3 1.7-1.3 1.7.6.3 1.1-.8 2.2-1.6 2.4-1.7.2-.2 0-.3-.6-.3s-1.7.8-2.4 1.7zm-225.7 2.8c0 1.6.2 2.2.5 1.2.2-.9.2-2.3 0-3-.3-.6-.5.1-.5 1.8zm267.3 1.5c1 1.1 2 2 2.3 2 .3 0-.3-.9-1.3-2s-2-2-2.3-2c-.3 0 .3.9 1.3 2zm-296.3 1c0 1.4.2 1.9.5 1.2.2-.6.2-1.8 0-2.5-.3-.6-.5-.1-.5 1.3zm29.9 3.6c0 1.1.3 1.4.6.6.3-.7.2-1.6-.1-1.9-.3-.4-.6.2-.5 1.3zm-29 2c0 1.1.3 1.4.6.6.3-.7.2-1.6-.1-1.9-.3-.4-.6.2-.5 1.3zm30 2c0 1.1.3 1.4.6.6.3-.7.2-1.6-.1-1.9-.3-.4-.6.2-.5 1.3zm272.4 1.4c1 1.1 2 2 2.3 2 .3 0-.3-.9-1.3-2s-2-2-2.3-2c-.3 0 .3.9 1.3 2zm-301.4.6c0 1.1.3 1.4.6.6.3-.7.2-1.6-.1-1.9-.3-.4-.6.2-.5 1.3zm29.9.9c0 .5.5 1.7 1 2.5s1 1 1 .5c0-.6-.5-1.7-1-2.5s-1-1.1-1-.5zm176.8 1.2c-1.8 2.1-3.1 4.3-2.5 4.3.2 0 1.3-1.4 2.5-3 2.5-3.3 2.4-4.1 0-1.3zm-79.3.3c-.4.6-.4 1.4-.1 1.7.3.4.6.1.6-.5 0-1.6 27.6-1.7 28.3-.2.3.6.4.5.3-.2-.3-1.7-28.1-2.4-29.1-.8zm111.1 3.8-1.9 2.7 2.4-2.2c1.2-1.2 2.1-2.4 1.8-2.7-.2-.2-1.3.8-2.3 2.2zm-83.5.8c0 1.1.3 1.4.6.6.3-.7.2-1.6-.1-1.9-.3-.4-.6.2-.5 1.3zm-29.5.9c-.9 2.6-.7 3.2.5 1.2.6-1 .9-2.1.6-2.3-.2-.3-.7.2-1.1 1.1zm75.3 2.2c-1.3 1.6-1.2 1.7.4.4.9-.7 1.7-1.5 1.7-1.7 0-.8-.8-.3-2.1 1.3zm-46.8.9c0 1.1.3 1.4.6.6.3-.7.2-1.6-.1-1.9-.3-.4-.6.2-.5 1.3zm80.9.4c-.6 1.1-.8 2-.6 2 .3 0 1-.9 1.6-2 .6-1.1.8-2 .6-2-.3 0-1 .9-1.6 2zm-199 1.4c0 .2.8 1 1.8 1.7 1.5 1.3 1.6 1.2.3-.4s-2.1-2.1-2.1-1.3zm195.9 3.3c-1.3 1.6-1.2 1.7.4.4 1.6-1.3 2.1-2.1 1.3-2.1-.2 0-1 .8-1.7 1.7zM183 364.5c1.3 1.4 2.6 2.5 2.8 2.5.3 0-.5-1.1-1.8-2.5s-2.6-2.5-2.8-2.5c-.3 0 .5 1.1 1.8 2.5zm76.5 1.7-4 4.3 4.3-4c3.9-3.6 4.7-4.5 3.9-4.5-.2 0-2.1 1.9-4.2 4.2zm34.1-2.5c-.6 1.4-.5 1.5.5.6.7-.7 1-1.5.7-1.8-.3-.3-.9.2-1.2 1.2zM152 369c.6 1.1 1.3 2 1.6 2 .2 0 0-.9-.6-2s-1.3-2-1.6-2c-.2 0 0 .9.6 2zm36.4-.1c.7 1.1 4.6 3.5 4.6 2.8 0-.3-1.2-1.2-2.6-2.2-1.5-.9-2.3-1.2-2-.6zm179.5 1.8c-1.3 1.6-1.2 1.7.4.4.9-.7 1.7-1.5 1.7-1.7 0-.8-.8-.3-2.1 1.3zm-37 2c-1.3 1.6-1.2 1.7.4.4.9-.7 1.7-1.5 1.7-1.7 0-.8-.8-.3-2.1 1.3zm-176.9-.3c0 .2.8 1 1.8 1.7 1.5 1.3 1.6 1.2.3-.4s-2.1-2.1-2.1-1.3zm40.7.7c.7.7 1.5 1 1.8.7.3-.3-.2-.9-1.2-1.2-1.4-.6-1.5-.5-.6.5zm4 2c.7.7 1.5 1 1.8.7.3-.3-.2-.9-1.2-1.2-1.4-.6-1.5-.5-.6.5zm88.2.6c-1.3 1.6-1.2 1.7.4.4 1.6-1.3 2.1-2.1 1.3-2.1-.2 0-1 .8-1.7 1.7zM158.5 378c1 1.1 2 2 2.3 2 .3 0-.3-.9-1.3-2s-2-2-2.3-2c-.3 0 .3.9 1.3 2zm47.3-.3c.7.3 1.6.2 1.9-.1.4-.3-.2-.6-1.3-.5-1.1 0-1.4.3-.6.6zm34 0c.7.3 1.6.2 1.9-.1.4-.3-.2-.6-1.3-.5-1.1 0-1.4.3-.6.6zm-29.5 1c.9.2 2.3.2 3 0 .6-.3-.1-.5-1.8-.5-1.6 0-2.2.2-1.2.5zm24.5 0c.6.2 1.8.2 2.5 0 .6-.3.1-.5-1.3-.5-1.4 0-1.9.2-1.2.5zm127.1 1c-1.3 1.6-1.2 1.7.4.4.9-.7 1.7-1.5 1.7-1.7 0-.8-.8-.3-2.1 1.3zm-142.6 0c2.6.2 6.7.2 9 0s.2-.3-4.8-.3c-4.9 0-6.8.1-4.2.3zm61.2 3.5-4 4.3 4.3-4c3.9-3.6 4.7-4.5 3.9-4.5-.2 0-2.1 1.9-4.2 4.2zm43.4-.5c-1.3 1.6-1.2 1.7.4.4 1.6-1.3 2.1-2.1 1.3-2.1-.2 0-1 .8-1.7 1.7zM167.5 387c1 1.1 2 2 2.3 2 .3 0-.3-.9-1.3-2s-2-2-2.3-2c-.3 0 .3.9 1.3 2zm268.5.9c.5 1.1 1.5 2.3 2.1 2.7.6.3.3-.5-.6-2-2-3-3-3.5-1.5-.7zm-163.1 1.8c-1.3 1.6-1.2 1.7.4.4 1.6-1.3 2.1-2.1 1.3-2.1-.2 0-1 .8-1.7 1.7zM478 393c.6 1.1 1.3 2 1.6 2 .2 0 0-.9-.6-2s-1.3-2-1.6-2c-.2 0 0 .9.6 2zm-303-.6c0 .3.9 1 2 1.6 1.1.6 2 .8 2 .6 0-.3-.9-1-2-1.6-1.1-.6-2-.8-2-.6zm140.9 1.3c-1.3 1.6-1.2 1.7.4.4 1.6-1.3 2.1-2.1 1.3-2.1-.2 0-1 .8-1.7 1.7zM187 399c.8.5 2 1 2.5 1 .6 0 .3-.5-.5-1s-1.9-1-2.5-1c-.5 0-.3.5.5 1zm69 0c-.8.5-1 1-.5 1 .6 0 1.7-.5 2.5-1s1.1-1 .5-1c-.5 0-1.7.5-2.5 1zm54.9 1.7c-1.3 1.6-1.2 1.7.4.4 1.6-1.3 2.1-2.1 1.3-2.1-.2 0-1 .8-1.7 1.7zm-62.1 1c.7.3 1.6.2 1.9-.1.4-.3-.2-.6-1.3-.5-1.1 0-1.4.3-.6.6zm-51 1c.6.2 1.8.2 2.5 0 .6-.3.1-.5-1.3-.5-1.4 0-1.9.2-1.2.5zm47 0c.7.3 1.6.2 1.9-.1.4-.3-.2-.6-1.3-.5-1.1 0-1.4.3-.6.6zm-42 1c.6.2 1.8.2 2.5 0 .6-.3.1-.5-1.3-.5-1.4 0-1.9.2-1.2.5zm37 0c.6.2 1.8.2 2.5 0 .6-.3.1-.5-1.3-.5-1.4 0-1.9.2-1.2.5zm-30 1c1.2.2 3.2.2 4.5 0 1.2-.2.2-.4-2.3-.4s-3.5.2-2.2.4zm21 0c1.2.2 3.2.2 4.5 0 1.2-.2.2-.4-2.3-.4s-3.5.2-2.2.4z" 
fill="#CCC"/>

<path d="M214.5 220.6c-17.9 2.3-29.7 6.6-41 14.9-28.6 21.1-40.4 58-32.4 101.8 2.5 14.1 9.5 29.8 17.8 40.2 18.2 22.7 52.5 32.4 86.7 24.5 25.5-5.9 44.9-23.7 50.8-46.7.9-3.4 1.6-6.4 1.6-6.7 0-.3-6.3-.6-14-.6h-13.9l-1 3.5c-3.5 12.8-16.5 23.8-32 27.1-19.8 4.2-40.3-1.1-53-13.6-9.7-9.6-14.6-21.8-15.3-38l-.3-7.5 66.3-.3 66.2-.2v-6.4c0-8.3-1.6-20-4.1-30.1-2.1-8.1-2.9-10.3-8-21.1-8.9-18.9-28.5-35-47.1-38.8-7.8-1.6-22.4-2.6-27.3-2zm15.6 25.8c12.3 2.6 22.3 9.1 29.9 19.4 5.2 6.9 9.6 18.1 10.2 25.8l.3 3.9-50.7.3-50.8.2v-3.3c0-10.2 6.6-24.5 15.4-33.2 12-12 28.6-16.7 45.7-13.1zm84.9-24.8c0 .3 3.6 5.4 7.9 11.2 4.4 5.9 13.3 18.1 20 27.2 10.7 14.7 24.5 33.5 32.3 44.1l2.8 3.7-7.8 10.7c-12.2 17.1-12.6 17.6-17.3 24.5-2.5 3.6-9.2 13-15 21-5.7 8-11.1 15.5-11.9 16.7-.8 1.2-4.8 6.7-8.7 12.3-4 5.6-7.3 10.6-7.3 11.1 0 .6 6.8.8 17.6.7l17.7-.3 20.9-31c11.5-17.1 22.9-34 25.3-37.8 2.5-3.7 4.8-6.7 5.2-6.7.5 0 4.2 5.2 8.3 11.5 4.1 6.2 15.6 23.3 25.4 37.9l17.9 26.6h18.8c10.4 0 18.9-.3 18.9-.8 0-.4-1.9-3.3-4.3-6.4-2.3-3.2-5.8-8-7.7-10.8-1.9-2.8-6-8.4-9-12.5s-7.1-9.7-9-12.5c-3.3-4.8-4.9-7-11.5-16-2.7-3.6-8.8-12.3-12.5-17.5-1.1-1.7-5.2-7.2-9-12.4-3.9-5.2-7-10-7-10.7 0-.6 2.4-4.3 5.3-8 2.8-3.8 5.9-7.9 6.7-9 1.5-2.2 15.3-20.6 25-33.4 6.7-8.9 23.9-32.1 24.6-33.1.3-.5-7.5-.9-17.3-.9h-17.9l-3.4 4.7c-1.9 2.7-4.4 6.1-5.5 7.8-1.2 1.6-3.6 5-5.4 7.5-1.7 2.5-4.3 6.1-5.6 8-1.4 1.9-5.4 7.5-9 12.5-3.5 4.9-8.5 12-11.1 15.7-2.5 3.8-5.1 6.8-5.7 6.8-1 0-13.2-17-19.7-27.4-1.9-2.9-14.7-21.7-17.8-26-1.2-1.7-3.2-4.6-4.3-6.4l-2.1-3.2h-18.9c-10.4 0-18.9.3-18.9.6z" 
fill="#FFF"/></svg>