<svg xmlns="http://www.w3.org/2000/svg" version="1.0" viewBox="33 38 265 300" height="70px" width="70px">

<path d="M33 188v150h130.4l-8.9-5.1c-17.7-10.1-94.2-54.3-105.6-61-9.2-5.4-12-7.5-13.3-10.3-1.4-3-1.6-10.8-1.6-74.3 0-65.4.1-71.1 1.8-74.3 2-4-2-1.6 69.2-42.5 29.4-17 53.9-31.2 54.5-31.7.5-.4-27.8-.8-62.8-.8H33v150zM172.6 38.8c.5.5 5.6 3.6 11.4 6.9 81.8 46.9 110.4 63.9 112.1 66.7 1.9 3.1 1.9 2.7 1.9-35.7V38h-63.2c-34.8 0-62.8.4-62.2.8zM296 262.2c-1.6 3.4-4.2 4.9-112.9 67.5l-14.4 8.3H298v-39.5c0-21.7-.1-39.5-.2-39.5-.2 0-1 1.5-1.8 3.2z"/>

<path d="M293.9 264.7c-1.3 1.6-1.2 1.7.4.4.9-.7 1.7-1.5 1.7-1.7 0-.8-.8-.3-2.1 1.3z" fill="#030"/>

<path d="m281 186.8.5 4.7.3-3.9c.2-2.1 0-4.2-.5-4.7-.4-.4-.6 1.3-.3 3.9zm-185.9-2.2c0 1.1.3 1.4.6.6.3-.7.2-1.6-.1-1.9-.3-.4-.6.2-.5 1.3zM205.2 196c0 1.9.2 2.7.5 1.7.2-.9.2-2.5 0-3.5-.3-.9-.5-.1-.5 1.8z" fill="#360"/>

<path d="M292.9 264.7c-1.3 1.6-1.2 1.7.4.4.9-.7 1.7-1.5 1.7-1.7 0-.8-.8-.3-2.1 1.3z" fill="#663"/>

<path d="M167.8 38.7c.7.3 1.6.2 1.9-.1.4-.3-.2-.6-1.3-.5-1.1 0-1.4.3-.6.6zm-129.9 72c-1.3 1.6-1.2 1.7.4.4.9-.7 1.7-1.5 1.7-1.7 0-.8-.8-.3-2.1 1.3zm254.1-1.3c0 .2.8 1 1.8 1.7 1.5 1.3 1.6 1.2.3-.4s-2.1-2.1-2.1-1.3zm4.5 78.1c0 40.1.1 56.4.2 36.2.2-20.3.2-53.1 0-73-.1-19.9-.2-3.4-.2 36.8zm-261 0c0 39.6.1 55.7.2 35.7.2-20 .2-52.4 0-72-.1-19.6-.2-3.3-.2 36.3zM204.4 156c0 8.5.2 12 .3 7.7.2-4.2.2-11.2 0-15.5-.1-4.2-.3-.7-.3 7.8zm15.6 23.2c-.3 17.4-.2 31.4.3 30.9.4-.4.6-14.7.5-31.7l-.3-30.9-.5 31.7zm-149-9.8c0 .2 1.1.6 2.5.8 1.3.3 2.2.1 1.9-.3-.5-.9-4.4-1.3-4.4-.5zM280.8 182c.6.8 1.2 3 1.2 5s-.6 4.2-1.2 5c-1.1 1.2-1 1.2.5.1 1.1-.9 1.7-2.7 1.7-5.1 0-2.4-.6-4.2-1.7-5.1-1.5-1.1-1.6-1.1-.5.1zM49.4 199.5c0 9.3.2 13.3.3 8.8.2-4.5.2-12.2 0-17-.1-4.8-.3-1.2-.3 8.2zm47-3.5c0 7.4.1 10.5.3 6.7.2-3.7.2-9.7 0-13.5-.2-3.7-.3-.6-.3 6.8zm139 .5c0 7.1.1 9.9.3 6.2.2-3.7.2-9.6 0-13-.2-3.4-.3-.4-.3 6.8zm-62 .5c0 6.9.1 9.7.3 6.2.2-3.4.2-9 0-12.5-.2-3.4-.3-.6-.3 6.3zm16.3-5.3c-.9.9-.9 9.1.1 9.6.4.3.7-1.9.7-4.9 0-3 0-5.4-.1-5.4 0 0-.4.3-.7.7zm13.8 4.8c0 2.9.3 5.1.8 4.8.4-.2.7-2.4.7-4.8s-.3-4.6-.7-4.8c-.5-.3-.8 1.9-.8 4.8zM65.3 200c0 4.7.2 6.6.4 4.2.2-2.3.2-6.1 0-8.5-.2-2.3-.4-.4-.4 4.3zm14.9.1c-.2 7.2.1 8.9 1.6 10 1.5 1.2 1.6 1.2.5-.1-.7-.9-1.4-5.4-1.6-10l-.3-8.5-.2 8.6zm171.1-4.6c0 2.2.2 3 .4 1.7.2-1.2.2-3 0-4-.3-.9-.5.1-.4 2.3zm15.1-.1c.1 2.6.6 4.1 1.6 4.3 1 .3 1.1.2.3-.4-.6-.4-1.3-2.4-1.6-4.3-.4-3.4-.4-3.3-.3.4zm-12.2.6c0 1.4.2 1.9.5 1.2.2-.6.2-1.8 0-2.5-.3-.6-.5-.1-.5 1.3zm9 .5c0 1.6.2 2.2.5 1.2.2-.9.2-2.3 0-3-.3-.6-.5.1-.5 1.8zm9.2 17.5c0 1.3.4 1.6 1 1 .7-.7.7-1.3 0-2-.6-.6-1-.3-1 1zM164.3 336.7c.9.2 2.5.2 3.5 0 .9-.3.1-.5-1.8-.5-1.9 0-2.7.2-1.7.5z" fill="#693"/>
<g fill="#9C3" stroke-width="0">
<path d="M164.2 38.8c-1.3.2-13.7 6.9-27.5 14.9-13.9 8-41.2 23.8-60.7 35s-36.5 21.5-37.7 22.9l-2.3 2.5v146.6l2.2 2.4c1.3 1.4 10.9 7.4 21.3 13.4 10.5 6 37.9 21.9 61 35.2 33.1 19.1 42.7 24.3 45.5 24.3 2.3 0 6.1-1.5 11-4.3 46-26.6 63.5-36.7 87-50.1 15.1-8.7 28.5-16.9 29.8-18.3l2.2-2.4v-73.2c0-62.8-.2-73.6-1.5-75.3-1.6-2.4-1.1-2.1-73-43.6-28.1-16.2-52-29.7-53-29.9-1.1-.3-3-.3-4.3-.1zm46 102.1c8.9 5 10.9 6.5 11.4 8.5.2 1.1.4 15 .2 30.8l-.3 28.8-2.7 2.5c-1.5 1.4-3.4 2.5-4.3 2.5-.8 0-1.5.4-1.5.8s-1.6 1.4-3.5 2.1c-1.9.7-3.5 1.7-3.5 2.2 0 .5-.7.9-1.5.9s-1.5.5-1.5 1.1c0 .5-.4.8-.9.4-.5-.3-1.2-.1-1.6.5-1.1 1.7-4.3 1.1-10.2-2-3.1-1.7-6.2-3.5-6.8-4-.7-.5-1.5-.7-1.8-.3-.4.3-.7.1-.7-.5 0-.7-.6-1.2-1.3-1.2-.7 0-2.5-1.1-4-2.5-2.7-2.5-2.7-2.7-2.7-15 0-11.5.2-12.6 2.2-14.4 1.2-1.2 3-2.3 4-2.7 1-.3 1.8-1 1.8-1.5 0-.6.4-.8.9-.4.5.3 1.2.1 1.6-.4.3-.5 1.8-1.6 3.3-2.4 1.5-.8 4.1-2.2 5.7-3.1 3.3-1.8 7.1-2.1 8-.6.3.5 1.2.7 2 .3 1.2-.4 1.5-3.3 1.5-15.7 0-8.4.3-15.6.7-15.9 1-1.1 2-.9 5.5 1.2zM77.8 170.8c4.9 3.3 6.7 4.3 9.5 5.5 1.5.6 2.7 1.5 2.7 1.9 0 .4.7.8 1.6.8 1.8 0 3.7 1.7 5 4.5 1 2.2.3 32.9-.8 34-.3.4-1.7.1-3-.6-1.2-.7-2.6-1.2-3-1.1-.5.1-.8-.2-.8-.6 0-.8-5.1-3.6-5.9-3.2-.2.1-1.2-1.1-2.2-2.6-1.2-2-1.7-4.5-1.6-8.8.1-7.1-.8-10.6-2.9-10.6-.8 0-1.4-.4-1.4-.8s-.9-.8-2-.8-2 .5-2 1-.3.6-.7.3c-.3-.4-1.5 0-2.5 1-1.5 1.3-1.8 3.2-1.8 9.7-.1 5.5-.5 8.7-1.5 10-.8 1.1-1.5 1.6-1.5 1.2 0-.5-.6-.3-1.4.3-2.7 2.3-10.8 6.1-11.7 5.6-.5-.4-.9-8.2-.9-17.4 0-15.4.2-17 2-19.1 1.1-1.3 2-2 2-1.5 0 .4.7.2 1.5-.5 1.8-1.5 7.3-4.7 9.8-5.6.9-.3 1.7-1.1 1.7-1.6s.4-.7.9-.4c.5.3 1.4-.1 2.1-.9 1.7-2 5.5-1.9 8.8.3zm69.9 4.5 10.8 6.3v28.8l-11 6.3c-6 3.5-11.6 6.3-12.5 6.3-.8 0-6.5-2.9-12.5-6.4l-11-6.3v-28.5l11-6.4c6-3.5 11.7-6.4 12.7-6.4.9 0 6.5 2.8 12.5 6.3zm114.3-5.1c0 .4.6.8 1.4.8.7 0 1.9.7 2.6 1.5.7.8 1.6 1.2 2.1.9.5-.3.9 0 .9.5 0 .6.7 1.1 1.5 1.1s1.5.4 1.5.9 1.5 1.5 3.3 2.2c5.4 2.3 7.7 4.9 7.7 8.8-.1 4.3-1.4 6.3-5.7 8-1.8.7-3.3 1.6-3.3 2 0 .4-1.5 1.2-3.2 1.9-2.8 1.1-3.5 1-4.5-.5-1.1-1.5-1.4-1.4-3.2.9-2.4 3-6.5 3-8.7.1-1.9-2.5-1.7-4.6.6-7.1 1.2-1.2 1.5-2.2.9-2.2-1.8 0-3.8 3.2-3.9 6.2 0 2.8 4.6 8.2 6.2 7.2.4-.3.8 0 .8.5 0 .6.7 1.1 1.5 1.1s1.5.4 1.5.9 1.5 1.5 3.3 2.2c1.7.7 3.7 1.7 4.2 2.1.6.5 1.9 1.5 3 2.3 2 1.4 2 1.4-.2 3.5-1.3 1.1-2.3 1.8-2.3 1.4 0-.4-.8-.1-1.7.7-1 .8-3.5 2.2-5.5 3.2-3.6 1.6-4 1.6-7.5-.1-2.1-.9-4.4-2.3-5.1-3-.8-.7-1.8-1-2.3-.7-.5.4-.9.1-.9-.4 0-.6-.6-1.1-1.4-1.1-.7 0-1.9-.7-2.6-1.5-.7-.9-1.5-1.3-1.7-1.1-.3.2-1.8-.7-3.4-2.1l-2.9-2.6V196c0-12.2.1-12.7 2.5-14.8 1.4-1.2 2.8-2.2 3.3-2.2.4 0 4.5-2.3 9.1-5 7.6-4.4 12.1-5.8 12.1-3.8z"/>
<path d="M196 188.9c0 .6-.6 1.1-1.4 1.1-2.4 0-4.6 3-4.6 6.3 0 2.8 1.9 7.8 2 5.2 0-.6.4-.4.9.4s2.4 1.4 4.2 1.4c6.4 0 9.2-7.8 4.4-12.3-1.4-1.3-2.5-2-2.5-1.6 0 .5-.7.3-1.5-.4-1-.9-1.5-.9-1.5-.1zm-65.2.9c-2.3 1.4-2.8 2.4-2.8 5.5 0 3.3.4 3.9 3.6 5.4 3.2 1.6 3.8 1.6 6.2.2 2.2-1.2 2.8-2.3 3-5.6.3-3.8 0-4.3-2.7-5.7-3.6-1.9-3.8-1.9-7.3.2zm127.2.2c0 .5.5 1 1 1 .6 0 1-.5 1-1 0-.6-.4-1-1-1-.5 0-1 .4-1 1zm3.7.1c.7.7 1.5 1 1.8.7.3-.3-.2-.9-1.2-1.2-1.4-.6-1.5-.5-.6.5zm1.8 2.9c.3.5.8 1 1.1 1 .2 0 .4-.5.4-1 0-.6-.5-1-1.1-1-.5 0-.7.4-.4 1z"/></g>

<path d="M297.5 187c0 39.3.1 55.4.2 35.7.2-19.6.2-51.8 0-71.5-.1-19.6-.2-3.5-.2 35.8zm-263 .5c0 39 .1 55.2.2 35.8.2-19.3.2-51.3 0-71-.1-19.7-.2-3.9-.2 35.2zm184.3-9.8c.2 23.6 0 30.9-1 32.2-1.2 1.4-1.1 1.5.5.2 1.5-1.2 1.7-4 1.7-31.7 0-16.6-.3-30.5-.7-30.7-.5-.3-.7 13.2-.5 30zm-23-6c.6.2 1.8.2 2.5 0 .6-.3.1-.5-1.3-.5-1.4 0-1.9.2-1.2.5zM182 179c-.9.6-1 1-.3 1 .6 0 1.5-.5 1.8-1 .8-1.2.4-1.2-1.5 0zm96 2.4c0 .2.8 1 1.8 1.7 1.5 1.3 1.6 1.2.3-.4s-2.1-2.1-2.1-1.3zM81.2 199.6c-.2 6.7.1 8.4 1.6 9.5 1.5 1.2 1.6 1.2.5-.1-.7-.9-1.4-5.2-1.6-9.5l-.3-8-.2 8.1zm186-4.9c-.2 3.4 1.2 5.1 2.4 3.2.4-.7.3-.9-.4-.5s-1.2-.6-1.5-2.6l-.4-3.3-.1 3.2zm-216.4 21c.7.3 1.6.2 1.9-.1.4-.3-.2-.6-1.3-.5-1.1 0-1.4.3-.6.6zm144 5.5c.6.6 1.8.8 2.8.6 1.4-.3 1.2-.5-.9-1-1.9-.3-2.5-.2-1.9.4z" fill="#330"/>

<path d="M96.2 212c0 1.9.2 2.7.5 1.7.2-.9.2-2.5 0-3.5-.3-.9-.5-.1-.5 1.8z" fill="#993"/>

<path d="M205.4 157.5c0 8.8.2 12.3.3 7.7.2-4.6.2-11.8 0-16-.1-4.2-.3-.5-.3 8.3zm-31 39c0 7.1.1 9.9.3 6.2.2-3.7.2-9.6 0-13-.2-3.4-.3-.4-.3 6.8zm62 0c0 7.1.1 9.9.3 6.2.2-3.7.2-9.6 0-13-.2-3.4-.3-.4-.3 6.8zm-141-2c0 4.9.1 7.1.3 4.8.2-2.3.2-6.4 0-9-.2-2.6-.3-.8-.3 4.2zm154.9 1.5c0 2.5.2 3.5.4 2.2.2-1.2.2-3.2 0-4.5-.2-1.2-.4-.2-.4 2.3zm-186 5c0 4.7.2 6.6.4 4.2.2-2.3.2-6.1 0-8.5-.2-2.3-.4-.4-.4 4.3zm31 9c0 3 .2 4.3.4 2.7.2-1.5.2-3.9 0-5.5-.2-1.5-.4-.2-.4 2.8z" fill="#363"/>

<g fill="#333" stroke-width="0">
<path d="M206.5 142.2c-.3.7-.6 8-.7 16.3-.3 14.7-.3 15-2.5 15.3-1.3.2-2.3-.1-2.3-.7 0-2.3-8.3-.8-11 1.9-.5.5-1.7 1.2-8.9 5.2-6.2 3.5-6.1 3.1-6.1 16.2 0 6.6.4 12.5.8 13.1.4.5 2.5 1.9 4.7 3.1 5.3 2.7 8.9 4.8 9.5 5.4 2.2 2.3 11 4 11 2.1 0-.5.8-1.1 1.8-1.4 2-.7 9.4-5 13.5-7.9l2.7-1.9v-30.2c0-16.6-.4-30.7-.8-31.2-.4-.6-3.1-2.2-6-3.8-3.8-2-5.4-2.4-5.7-1.5zm-6.2 46c4.8 2.8 5.7 4.1 5.7 8.3 0 4.4-1.1 5.9-6.1 8.4-3 1.5-5.6.9-8.8-1.8-1.6-1.4-2.1-3-2.1-6.5 0-4.7.7-6 4.5-8.3 2.6-1.6 4.1-1.6 6.8-.1zM69 172.3c-1.4.8-6.1 3.6-10.5 6.3l-8 5-.3 13.4c-.3 15.6.1 18 2.8 18 1.1 0 2-.3 2-.8 0-.4 1.5-1.4 3.3-2.1 4.7-2.1 5.6-3.9 5.7-11.3 0-7.9 1.1-10.8 4.7-12.6 3.2-1.4 8.3-1.6 8.3-.2 0 .5.5 1 1.1 1 2.6 0 3.8 3.7 3.9 11 0 4.3.6 8.1 1.3 9 1.3 1.6 9.2 6 10.8 6 .5 0 .9-7 .9-15.8 0-17.4 0-17.3-6.7-20.1-1.8-.7-3.3-1.6-3.3-2 0-.3-1.5-1.2-3.2-2-1.8-.8-3.5-1.8-3.8-2.3-1.1-1.5-6.5-1.9-9-.5zm186 .4c-1.9 1-3.7 2-4 2.3-.3.4-2 1.3-3.7 2.1-1.8.8-3.3 1.7-3.3 2.1 0 .5-.6.8-1.3.8-.7 0-2.3.9-3.5 2.1-2.1 1.9-2.2 2.7-2 14.6.3 11.4.5 12.7 2.3 13.7 1.1.6 2.2 1.4 2.5 1.7.3.3 2 1.2 3.8 2 1.7.8 3.2 1.6 3.2 2 0 .3 1.6 1.1 3.5 1.9 1.9.8 3.5 1.7 3.5 2.2 0 1.6 4 .8 8.2-1.7 7.8-4.5 7.6-4.2 4.8-6.5-1.4-1.1-3.1-2-3.7-2-.7 0-1.3-.4-1.3-.8 0-.5-1.6-1.4-3.5-2.2-1.9-.8-3.5-1.7-3.5-2.2 0-.4-.7-.8-1.5-.8-2.8 0-5.5-3.8-5.5-7.8.1-5.2 4-9.2 9.1-9.2 3.8 0 8.9 4.7 8.9 8.1v3l6.3-3.3c5.5-3 6.2-3.8 6.5-6.7.4-3.6-1.4-6.3-5.7-8.4-3.5-1.8-7.5-4.1-8.1-4.7-.5-.5-7.9-4-8.3-4-.1 0-1.8.8-3.7 1.7z"/>
<path d="M257 193.8c-2.1 1.7-2.2 2.2-1.1 3.6 1.7 2 4.5 2.1 6.1 0 1.1-1.3 1-1.8-.7-3.5-1.9-2-2-2-4.3-.1z"/></g>

<path d="M221.4 178c0 16.2.2 22.9.3 14.7.2-8.1.2-21.3 0-29.5-.1-8.1-.3-1.4-.3 14.8zm-85.4-8.6c0 .2.7.7 1.6 1 .8.3 1.2.2.9-.4-.6-1-2.5-1.4-2.5-.6zm66.5 2.6c.3.5.8 1 1.1 1 .2 0 .4-.5.4-1 0-.6-.5-1-1.1-1-.5 0-.7.4-.4 1zm-60.5.4c0 .3.9 1 2 1.6 1.1.6 2 .8 2 .6 0-.3-.9-1-2-1.6-1.1-.6-2-.8-2-.6zm14 8c0 .2.8 1 1.8 1.7 1.5 1.3 1.6 1.2.3-.4s-2.1-2.1-2.1-1.3zm-44.5 1.7c-.4.6-.5 1.2-.2 1.5.2.3.7-.2 1-1.1.7-1.7.1-2-.8-.4zm18.9 7.5c-1.8 1.4-1.8 1.5.4.4 1.2-.6 2.2-1.3 2.2-1.5 0-.8-.5-.6-2.6 1.1zM257 189c-.8.5-1 1-.5 1 .6 0 .3.5-.5 1-.9.6-1 1-.3 1s1.7-.8 2.3-1.8c1-1.6 1-1.6 2 0 .6 1 2 1.8 3.1 1.8 1.6 0 1.8.5 1.3 2.5-.4 1.5-.2 2.5.5 2.5.6 0 1.1-1.1 1.1-2.5 0-1.8-.7-2.8-2.4-3.5-1.3-.5-2.7-1.4-3.1-1.9-.8-1.3-1.6-1.4-3.5-.1zm-116.2 5.1c.3 2.3-.1 4.6-.9 5.7-1.3 1.5-1.2 1.6.4.3 1.7-1.4 2.5-8.5.9-9.5-.4-.2-.6 1.3-.4 3.5zm-62-.1c.2 1.6.6 3 .8 3 .2 0 .4-1.4.4-3 0-1.7-.4-3-.8-3-.5 0-.7 1.3-.4 3zm173.2-1.9c0 .5.5.7 1 .4.6-.3 1-.8 1-1.1 0-.2-.4-.4-1-.4-.5 0-1 .5-1 1.1zM127.2 195c0 1.9.2 2.7.5 1.7.2-.9.2-2.5 0-3.5-.3-.9-.5-.1-.5 1.8zm-16 1.5c0 1.6.2 2.2.5 1.2.2-.9.2-2.3 0-3-.3-.6-.5.1-.5 1.8zm142-.5c0 1.4.2 1.9.5 1.2.2-.6.2-1.8 0-2.5-.3-.6-.5-.1-.5 1.3zm-50.6 4.7c-.6 1.4-.5 1.5.5.6.7-.7 1-1.5.7-1.8-.3-.3-.9.2-1.2 1.2zm52 .1c-.2.4.4.8 1.4.8 1 0 1.6-.4 1.4-.8-.3-.4-.9-.8-1.4-.8-.5 0-1.1.4-1.4.8zM79.2 204c0 1.9.2 2.7.5 1.7.2-.9.2-2.5 0-3.5-.3-.9-.5-.1-.5 1.8zm53.6-1.8c.5.5 1.6.8 2.3.6.8-.3.3-.7-1-1.1-1.7-.4-2.1-.3-1.3.5zm-21.8 6.7c0 .6.4 1.3 1 1.6.6.3.7-.1.4-.9-.7-1.8-1.4-2.1-1.4-.7zm45.9 1.8c-1.3 1.6-1.2 1.7.4.4 1.6-1.3 2.1-2.1 1.3-2.1-.2 0-1 .8-1.7 1.7zm-37.9 3.7c0 .3.9 1 2 1.6 1.1.6 2 .8 2 .6 0-.3-.9-1-2-1.6-1.1-.6-2-.8-2-.6z" fill="#9C6"/>

<path d="M113.2 182.2c-.8.8-1.2 5.4-1.2 13.9 0 10.9.2 12.8 1.8 14 1.4 1.1 1.5 1.1.5-.1-1.8-1.9-1.8-26.1-.1-27.8.7-.7 1-1.2.7-1.2-.3 0-1 .5-1.7 1.2zm44.2 13.8c0 7.4.1 10.5.3 6.7.2-3.7.2-9.7 0-13.5-.2-3.7-.3-.6-.3 6.8zm-23.6-9.3c.7.3 1.6.2 1.9-.1.4-.3-.2-.6-1.3-.5-1.1 0-1.4.3-.6.6zm-7.5 8.3c0 2.5.2 3.5.4 2.2.2-1.2.2-3.2 0-4.5-.2-1.2-.4-.2-.4 2.3zm15.3 4.7c-.6 1.4-.5 1.5.5.6.7-.7 1-1.5.7-1.8-.3-.3-.9.2-1.2 1.2zm-7.8 22c.6.2 1.8.2 2.5 0 .6-.3.1-.5-1.3-.5-1.4 0-1.9.2-1.2.5z" fill="#FFC"/>

<path d="m124 176.3-10.5 6.2-.3 13.1c-.2 9.7.1 13.4 1 14.2 3.2 2.5 19.1 11.2 20.8 11.2 1 0 6.3-2.6 11.9-5.8l10.1-5.7V196l-.1-13.5-10.8-6.3c-5.9-3.4-11-6.2-11.2-6.1-.2 0-5.1 2.8-10.9 6.2zm15.3 12.2c3.3 2.3 3.7 3 3.7 6.9 0 4-.3 4.6-3.7 6.6-4.1 2.4-6.6 2.1-10.6-1.1-2.1-1.6-2.7-2.9-2.7-5.9 0-3.4.5-4.3 3.7-6.5 2.1-1.4 4.2-2.5 4.8-2.5.6 0 2.7 1.1 4.8 2.5z" fill="#FFF"/><path d="M158.4 194.5c0 5.5.1 7.6.3 4.7.2-2.9.2-7.4 0-10-.2-2.6-.3-.2-.3 5.3z" fill="#CC9"/>

<path d="M142.2 195c0 1.9.2 2.7.5 1.7.2-.9.2-2.5 0-3.5-.3-.9-.5-.1-.5 1.8z" fill="#CFC"/>

<path d="M111.3 189c0 3 .2 4.3.4 2.7.2-1.5.2-3.9 0-5.5-.2-1.5-.4-.2-.4 2.8zm0 14.5c0 2.7.2 3.8.4 2.2.2-1.5.2-3.7 0-5-.2-1.2-.4 0-.4 2.8z" fill="#CC6"/></svg>